<?xml version="1.0" encoding="utf-8"?>
<!-- Generator: Adobe Illustrator 16.0.0, SVG Export Plug-In . SVG Version: 6.00 Build 0)  -->
<!DOCTYPE svg PUBLIC "-//W3C//DTD SVG 1.1//EN" "http://www.w3.org/Graphics/SVG/1.1/DTD/svg11.dtd">
<svg version="1.1" id="Capa_1" xmlns="http://www.w3.org/2000/svg" xmlns:xlink="http://www.w3.org/1999/xlink" x="0px" y="0px"
	 width="800px" height="800px" viewBox="0 0 800 800" enable-background="new 0 0 800 800" xml:space="preserve">
<g>
	<path fill="#333333" d="M128.032,487.021v-1c0-6.563-5.34-11.903-11.903-11.903H24.807V325.882h750.387v148.236H167.742
		c-6.563,0-11.903,5.34-11.903,11.903v1H128.032z"/>
	<path fill="#333333" d="M167.742,473.118h606.451V326.882H25.807v146.236h90.322c7.126,0,12.903,5.777,12.903,12.903h25.807
		C154.839,478.896,160.616,473.118,167.742,473.118z"/>
	<path fill="#FFFFFF" d="M735.484,645.161h38.709V498.925H167.742c-7.126,0-12.903-5.777-12.903-12.903h-25.807
		c0,7.126-5.777,12.903-12.903,12.903H25.807v146.236h658.064c7.128,0,12.903,5.777,12.903,12.903h25.807
		C722.581,650.938,728.356,645.161,735.484,645.161z"/>
	<rect x="24.807" y="153.839" fill="#3DB4EA" width="750.387" height="148.236"/>
	<rect x="25.807" y="154.839" fill="#3DB4EA" width="748.387" height="146.236"/>
	<path d="M787.097,129.032H12.903C5.777,129.032,0,134.81,0,141.936v516.129c0,7.126,5.777,12.903,12.903,12.903h670.968
		c7.128,0,12.903-5.777,12.903-12.903s-5.775-12.903-12.903-12.903H25.807V498.925h90.322c7.126,0,12.903-5.777,12.903-12.903
		s-5.777-12.903-12.903-12.903H25.807V326.882h748.387v146.236H167.742c-7.126,0-12.903,5.777-12.903,12.903
		s5.777,12.903,12.903,12.903h606.451v146.236h-38.709c-7.128,0-12.903,5.777-12.903,12.903s5.775,12.903,12.903,12.903h51.612
		c7.128,0,12.903-5.777,12.903-12.903V141.936C800,134.81,794.225,129.032,787.097,129.032z M774.193,154.839v146.236H25.807
		V154.839H774.193z"/>
</g>
</svg>
