<svg width="873" height="748" viewBox="0 0 873 748" fill="none" xmlns="http://www.w3.org/2000/svg">
<g filter="url(#filter0_i)">
<path d="M0.999551 639.845C7.53054 639.725 17.327 639.484 29.3005 639.122C46.0122 638.579 54.4 638.338 56.1928 637.976C71.1757 635.022 81.8686 625.314 102.678 606.018C117.597 592.15 119.774 587.688 129.442 584.432C143.273 579.789 156.143 583.226 160.048 584.432C173.431 588.593 181.05 596.974 183.739 600.29" stroke="url(#paint0_linear)" stroke-width="6" stroke-miterlimit="10"/>
<path d="M209.562 724.643C217.226 725.255 223.859 725.622 229.076 725.867C240.475 726.417 246.143 726.601 250.136 726.478C258.508 726.172 269.908 730.517 276.348 732.598C285.686 735.657 294.187 732.781 295.218 732.414C301.014 730.395 300.177 728.131 308.098 723.052C316.471 717.667 324.392 715.525 328.514 714.485C335.727 712.588 335.083 713.934 345.066 711.853C351.442 710.507 358.719 708.977 366.963 705.122C373.596 702.063 373.21 701.083 379.65 698.391C387.572 695.087 389.246 696.188 395.3 693.496C400.323 691.293 399.937 690.252 410.757 682.297C419.322 675.994 419.966 676.362 427.695 670.487C432.911 666.51 436.582 663.328 440.382 660.084C441.992 658.677 444.504 656.474 456.676 645.215C467.174 635.485 467.431 635.179 470.651 632.364C474.451 629.06 475.288 628.448 482.695 622.145C488.169 617.494 490.874 615.108 492.548 613.578C501.565 605.194 500.792 604.093 505.88 600.544C508.134 598.953 513.994 595.098 522.431 593.629C527.326 592.772 532.285 591.854 536.149 594.669C539.498 597.056 540.271 600.972 540.85 603.848C541.301 606.051 542.074 611.864 538.918 617.739C536.729 621.778 534.861 621.655 527.133 628.57C525.201 630.283 520.499 634.506 515.733 640.197C509.293 647.907 510.388 649.131 505.622 653.659C501.243 657.82 500.212 656.78 491.453 663.022C485.528 667.244 481.342 670.977 477.929 674.036C473.678 677.83 463.438 686.764 462.279 687.376C455.13 691.048 451.33 690.314 443.989 694.23C436.196 698.33 436.389 700.288 427.695 705.061C421.125 708.671 415.2 710.752 411.336 711.915" stroke="url(#paint1_linear)" stroke-width="6" stroke-miterlimit="10"/>
<path d="M519.799 634.427C522.229 633.515 525.937 632.117 530.349 630.233C539.236 626.405 558.29 622.333 562.574 622.758C568.328 623.305 571.461 623.609 574.53 625.979C578.814 629.322 579.837 634.244 580.285 636.493C580.924 639.592 581.692 643.238 579.837 646.398C577.408 650.592 572.932 649.741 562.126 654.481C555.605 657.398 551.001 660.437 548.699 661.956C542.561 666.088 541.474 668.033 537.382 671.072C534.441 673.32 531.883 674.657 509.441 681.828C501.321 684.441 495.31 686.325 486.615 688.938C477.983 691.491 477.599 691.491 467.625 694.408C463.277 695.684 454.709 698.236 444.351 701.518C426.96 707.048 429.645 706.744 423.443 708.385C407.65 712.578 404.965 710.512 393.392 714.887C383.418 718.655 385.144 720.296 377.599 722.362C365.643 725.644 361.742 721.39 347.548 724.185C339.811 725.705 333.865 728.379 330.093 730.08C320.502 734.395 319.862 736.583 312.19 739.804C301.832 744.179 292.561 744.544 288.916 744.665C280.54 744.908 274.338 743.389 262.254 740.229C251.832 737.494 248.89 735.975 230.924 730.08C223.443 727.649 216.09 725.279 207.458 722.788C197.228 719.871 184.248 716.164 168.008 713.49C146.269 709.904 144.798 712.457 128.366 708.203C117.305 705.346 115.898 703.706 104.709 701.518C99.018 700.424 88.66 698.783 75.4886 698.905C69.2866 698.965 63.596 699.573 52.2149 700.728C37.4451 702.247 34.4399 703.159 24.2737 703.949C15.8977 704.617 8.16112 704.86 0.999986 704.739" stroke="url(#paint2_linear)" stroke-width="6" stroke-miterlimit="10"/>
<path d="M149.973 558.537C152.135 560.616 155.506 563.641 159.957 566.918C166.571 571.834 168.669 572.275 173.502 575.93C177.572 579.018 180.815 582.862 187.301 590.424C195.441 600.003 195.441 601.263 200.465 605.99C203.644 609.015 206.76 611.22 212.992 615.631C217.952 619.161 222.721 622.564 229.335 626.345C233.532 628.739 232.578 627.92 245.232 634.348C254.771 639.2 259.54 641.595 261.13 642.54C267.807 646.448 269.143 647.897 273.022 648.653C277.219 649.472 279.19 648.464 285.74 647.582C289.492 647.078 294.325 647.015 303.99 646.952C315.818 646.826 321.796 646.763 324.975 647.771C331.08 649.662 332.733 652.119 338.965 652.623C342.272 652.875 342.972 652.308 349.776 651.363C357.089 650.355 363.384 649.472 370.761 649.914C378.773 650.355 381.126 651.93 385.196 649.914C388.057 648.527 387.93 647.204 392 643.612C392.7 642.982 398.041 638.381 405.163 635.608C413.303 632.52 414.638 635.356 420.616 632.457C423.668 631.008 423.795 630 432.698 620.673C438.612 614.434 441.664 611.283 445.861 607.88C449.55 604.855 452.538 602.398 457.117 600.129C462.077 597.608 468.563 594.331 476.385 595.718C479.31 596.222 485.161 597.167 488.022 602.019C490.757 606.557 489.93 612.922 486.114 618.341" stroke="url(#paint3_linear)" stroke-width="6" stroke-miterlimit="10"/>
<path d="M0.999713 574.219C3.0428 574.157 5.97976 574.096 9.55516 574.034C15.1098 573.911 25.8998 573.604 34.0083 573.296C40.4568 573.05 50.1615 572.62 62.42 571.39C75.9555 570.038 82.9147 569.3 92.364 566.656C97.4079 565.242 103.026 563.644 109.922 560.201C115.668 557.311 117.839 555.343 125.82 550.363C134.247 545.076 138.589 542.432 142.484 540.834C148.677 538.251 153.593 537.452 159.786 536.468C165.213 535.608 176.833 534.132 191.709 535.669C199.498 536.468 205.372 537.821 212.14 539.358C217.822 540.649 218.716 541.08 232.826 544.891C244.51 548.027 250.448 549.626 254.534 550.425C257.343 550.978 265.771 552.515 276.88 553.069C285.18 553.499 287.479 553.007 301.781 552.638C309.187 552.454 321.892 552.208 336.258 552.638C336.258 552.638 346.792 552.946 363.329 554.913C372.778 556.02 378.141 557.003 382.929 561.061C387.909 565.242 389.442 570.345 389.761 571.329C391.74 578.153 389.378 583.871 388.293 586.515C385.483 593.217 380.695 597.029 377.63 599.426C372.522 603.423 366.521 606.251 358.285 608.218C351.453 609.878 342.77 611.108 322.084 609.632C297.886 607.972 285.308 604.591 283.776 608.218C283.074 609.878 285.564 613.567 288.245 615.412C289.714 616.457 290.352 616.273 291.629 617.441C293.289 618.978 293.161 620.023 295.013 623.404C296.609 626.294 297.439 627.708 299.035 628.507C299.993 628.999 301.142 629.184 304.334 628.938C307.846 628.63 309.634 628.446 312.634 627.524C320.36 625.064 331.086 626.786 344.175 628.753C349.985 629.614 350.559 630.29 354.199 630.598C359.306 631.028 362.243 630.536 368.245 630.168C372.842 629.922 377.758 629.86 382.929 629.983C394.613 630.29 405.084 631.643 414.15 633.426" stroke="url(#paint4_linear)" stroke-width="6" stroke-miterlimit="10"/>
</g>
<g filter="url(#filter1_f)">
<circle cx="671.79" cy="115.437" r="12.9918" stroke="url(#paint5_linear)" stroke-width="4"/>
</g>
<g filter="url(#filter2_f)">
<circle cx="611.073" cy="293.089" r="12.9918" stroke="url(#paint6_linear)" stroke-width="4"/>
</g>
<circle cx="544.359" cy="58.4678" r="10.9918" stroke="url(#paint7_linear)" stroke-width="8"/>
<circle cx="405.31" cy="222.253" r="51.8444" stroke="url(#paint8_linear)" stroke-opacity="0.9" stroke-width="8"/>
<g filter="url(#filter3_f)">
<path d="M395.305 97.0942C397.581 83.568 410.866 74.3389 425.17 76.7465C439.473 79.1541 449.005 92.2236 446.728 105.75C444.451 119.276 431.167 128.505 416.863 126.097C402.559 123.69 393.028 110.62 395.305 97.0942Z" stroke="url(#paint9_linear)" stroke-opacity="0.6" stroke-width="6"/>
</g>
<g filter="url(#filter4_f)">
<path d="M626.178 71.6079C628.455 58.0817 641.739 48.8525 656.043 51.2601C670.347 53.6677 679.878 66.7372 677.602 80.2634C675.325 93.7896 662.04 103.019 647.736 100.611C633.433 98.2036 623.901 85.1341 626.178 71.6079Z" stroke="url(#paint10_linear)" stroke-opacity="0.6" stroke-width="6"/>
</g>
<g filter="url(#filter5_f)">
<path d="M849.453 51.6017C860.072 60.3368 861.506 76.3378 852.436 87.3635C843.367 98.3893 827.389 100.068 816.77 91.3329C806.151 82.5977 804.717 66.5968 813.787 55.571C822.857 44.5453 838.834 42.8665 849.453 51.6017Z" stroke="url(#paint11_linear)" stroke-width="6"/>
</g>
<g filter="url(#filter6_f)">
<path d="M674.786 368.798C674.786 381.175 664.592 391.284 651.925 391.284C639.258 391.284 629.064 381.175 629.064 368.798C629.064 356.42 639.258 346.312 651.925 346.312C664.592 346.312 674.786 356.42 674.786 368.798Z" stroke="url(#paint12_linear)" stroke-opacity="0.6" stroke-width="6"/>
</g>
<g filter="url(#filter7_f)">
<path d="M737.297 255.811C746.608 259.048 751.544 269.543 748.136 279.342C744.729 289.142 734.348 294.311 725.037 291.073C715.725 287.836 710.79 277.341 714.197 267.542C717.604 257.742 727.986 252.573 737.297 255.811Z" stroke="url(#paint13_linear)" stroke-width="4"/>
</g>
<g filter="url(#filter8_f)">
<path d="M672.298 298.885C677.07 300.544 679.598 305.921 677.852 310.942C676.107 315.962 670.788 318.611 666.016 316.952C661.244 315.293 658.716 309.915 660.462 304.895C662.207 299.875 667.526 297.225 672.298 298.885Z" stroke="url(#paint14_linear)" stroke-width="2"/>
</g>
<g filter="url(#filter9_f)">
<path d="M473.657 400.829C478.429 402.488 480.957 407.866 479.212 412.886C477.466 417.906 472.147 420.555 467.376 418.896C462.604 417.237 460.076 411.859 461.821 406.839C463.567 401.819 468.886 399.17 473.657 400.829Z" stroke="url(#paint15_linear)" stroke-width="2"/>
</g>
<g filter="url(#filter10_f)">
<path d="M502.142 232.921C506.914 234.58 509.442 239.958 507.696 244.978C505.951 249.998 500.632 252.647 495.86 250.988C491.088 249.329 488.56 243.951 490.305 238.931C492.051 233.911 497.37 231.262 502.142 232.921Z" stroke="url(#paint16_linear)" stroke-width="2"/>
</g>
<g filter="url(#filter11_f)">
<path d="M509.638 376.842C514.41 378.501 516.938 383.879 515.192 388.899C513.447 393.919 508.128 396.568 503.356 394.909C498.584 393.25 496.056 387.872 497.802 382.852C499.547 377.832 504.866 375.183 509.638 376.842Z" stroke="url(#paint17_linear)" stroke-width="2"/>
</g>
<g filter="url(#filter12_f)">
<path d="M570.355 232.921C575.127 234.58 577.655 239.958 575.909 244.978C574.164 249.998 568.845 252.647 564.073 250.988C559.301 249.329 556.773 243.951 558.518 238.931C560.264 233.911 565.583 231.262 570.355 232.921Z" stroke="url(#paint18_linear)" stroke-width="2"/>
</g>
<path d="M398.687 55.8444C398.687 84.378 374.905 107.689 345.344 107.689C315.782 107.689 292 84.378 292 55.8444C292 27.3107 315.782 4 345.344 4C374.905 4 398.687 27.3107 398.687 55.8444Z" stroke="url(#paint19_linear)" stroke-opacity="0.9" stroke-width="8"/>
<g filter="url(#filter13_f)">
<path d="M517.947 435.354C526.203 429.967 537.525 432.48 543.194 441.169C548.864 449.857 546.605 461.232 538.35 466.62C530.094 472.007 518.772 469.494 513.102 460.805C507.433 452.117 509.692 440.741 517.947 435.354Z" stroke="url(#paint20_linear)" stroke-width="4"/>
</g>
<g filter="url(#filter14_f)">
<path d="M476.062 524.964C481.881 526.987 485.005 533.568 482.854 539.753C480.704 545.939 474.171 549.162 468.352 547.139C462.532 545.115 459.409 538.534 461.559 532.349C463.71 526.164 470.242 522.94 476.062 524.964Z" stroke="url(#paint21_linear)" stroke-width="4"/>
</g>
<g filter="url(#filter15_f)">
<path d="M648.845 231.074C658.157 234.311 663.092 244.806 659.685 254.606C656.278 264.405 645.896 269.574 636.585 266.337C627.274 263.099 622.338 252.605 625.746 242.805C629.153 233.006 639.534 227.837 648.845 231.074Z" stroke="url(#paint22_linear)" stroke-width="4"/>
</g>
<path d="M543.013 332.48C525.733 340.309 505.027 332.313 496.875 314.32C488.723 296.328 496.364 275.488 513.644 267.659C530.923 259.83 551.629 267.826 559.782 285.819C567.934 303.812 560.292 324.651 543.013 332.48Z" stroke="url(#paint23_linear)" stroke-opacity="0.8" stroke-width="8"/>
<g filter="url(#filter16_f)">
<circle cx="580.34" cy="378.542" r="13.7414" stroke="url(#paint24_linear)" stroke-width="4"/>
</g>
<g filter="url(#filter17_f)">
<circle cx="632.811" cy="182.9" r="13.7414" stroke="url(#paint25_linear)" stroke-width="4"/>
</g>
<circle cx="558.589" cy="160.541" r="37.977" transform="rotate(-55.0398 558.589 160.541)" stroke="url(#paint26_linear)" stroke-opacity="0.8" stroke-width="8"/>
<g filter="url(#filter18_f)">
<path d="M463.872 360.024C465.365 373.76 455.92 385.828 443.075 387.225C430.23 388.621 418.412 378.864 416.919 365.128C415.426 351.391 424.871 339.323 437.716 337.926C450.561 336.53 462.379 346.287 463.872 360.024Z" stroke="url(#paint27_linear)" stroke-width="6"/>
</g>
<path d="M809.462 179.901C809.462 208.203 785.706 231.371 756.118 231.371C726.531 231.371 702.775 208.203 702.775 179.901C702.775 151.6 726.531 128.432 756.118 128.432C785.706 128.432 809.462 151.6 809.462 179.901Z" stroke="url(#paint28_linear)" stroke-opacity="0.9" stroke-width="8"/>
<circle cx="721.355" cy="348.651" r="51.8444" transform="rotate(131.171 721.355 348.651)" stroke="url(#paint29_linear)" stroke-opacity="0.9" stroke-width="8"/>
<circle cx="445.066" cy="486.709" r="51.8444" transform="rotate(-123.255 445.066 486.709)" stroke="url(#paint30_linear)" stroke-opacity="0.9" stroke-width="8"/>
<g opacity="0.88" filter="url(#filter19_d)">
<mask id="path-32-inside-1" fill="white">
<ellipse cx="432.688" cy="468.95" rx="7.6875" ry="7.95"/>
</mask>
<path d="M432.375 468.95C432.375 468.996 432.367 469.014 432.366 469.016C432.363 469.023 432.363 469.02 432.372 469.01C432.382 469 432.413 468.972 432.474 468.946C432.541 468.916 432.62 468.9 432.688 468.9V484.9C441.603 484.9 448.375 477.504 448.375 468.95H432.375ZM432.688 468.9C432.755 468.9 432.834 468.916 432.901 468.946C432.962 468.972 432.993 469 433.003 469.01C433.012 469.02 433.012 469.023 433.009 469.016C433.008 469.014 433 468.996 433 468.95H417C417 477.504 423.772 484.9 432.688 484.9V468.9ZM433 468.95C433 468.904 433.008 468.886 433.009 468.884C433.012 468.877 433.012 468.88 433.003 468.89C432.993 468.9 432.962 468.928 432.901 468.954C432.834 468.984 432.755 469 432.688 469V453C423.772 453 417 460.396 417 468.95H433ZM432.688 469C432.62 469 432.541 468.984 432.474 468.954C432.413 468.928 432.382 468.9 432.372 468.89C432.363 468.88 432.363 468.877 432.366 468.884C432.367 468.886 432.375 468.904 432.375 468.95H448.375C448.375 460.396 441.603 453 432.688 453V469Z" fill="white" mask="url(#path-32-inside-1)"/>
<mask id="path-34-inside-2" fill="white">
<ellipse cx="458.312" cy="474.25" rx="7.6875" ry="7.95"/>
</mask>
<path d="M458 474.25C458 474.296 457.992 474.314 457.991 474.316C457.988 474.323 457.988 474.321 457.997 474.31C458.007 474.3 458.038 474.273 458.099 474.246C458.166 474.216 458.245 474.2 458.312 474.2V490.2C467.228 490.2 474 482.804 474 474.25H458ZM458.312 474.2C458.38 474.2 458.459 474.216 458.526 474.246C458.587 474.273 458.618 474.3 458.628 474.31C458.637 474.321 458.637 474.323 458.634 474.316C458.633 474.314 458.625 474.296 458.625 474.25H442.625C442.625 482.804 449.397 490.2 458.312 490.2V474.2ZM458.625 474.25C458.625 474.204 458.633 474.186 458.634 474.184C458.637 474.177 458.637 474.18 458.628 474.19C458.618 474.2 458.587 474.228 458.526 474.254C458.459 474.284 458.38 474.3 458.312 474.3V458.3C449.397 458.3 442.625 465.696 442.625 474.25H458.625ZM458.312 474.3C458.245 474.3 458.166 474.284 458.099 474.254C458.038 474.228 458.007 474.2 457.997 474.19C457.988 474.18 457.988 474.177 457.991 474.184C457.992 474.186 458 474.204 458 474.25H474C474 465.696 467.228 458.3 458.312 458.3V474.3Z" fill="white" mask="url(#path-34-inside-2)"/>
<mask id="path-36-inside-3" fill="white">
<ellipse cx="432.688" cy="506.05" rx="7.6875" ry="7.95"/>
</mask>
<path d="M432.375 506.05C432.375 506.096 432.367 506.114 432.366 506.116C432.363 506.123 432.363 506.121 432.372 506.11C432.382 506.1 432.413 506.073 432.474 506.046C432.541 506.016 432.62 506 432.688 506V522C441.603 522 448.375 514.604 448.375 506.05H432.375ZM432.688 506C432.755 506 432.834 506.016 432.901 506.046C432.962 506.073 432.993 506.1 433.003 506.11C433.012 506.121 433.012 506.123 433.009 506.116C433.008 506.114 433 506.096 433 506.05H417C417 514.604 423.772 522 432.688 522V506ZM433 506.05C433 506.004 433.008 505.986 433.009 505.984C433.012 505.977 433.012 505.98 433.003 505.99C432.993 506 432.962 506.028 432.901 506.054C432.834 506.084 432.755 506.1 432.688 506.1V490.1C423.772 490.1 417 497.496 417 506.05H433ZM432.688 506.1C432.62 506.1 432.541 506.084 432.474 506.054C432.413 506.028 432.382 506 432.372 505.99C432.363 505.98 432.363 505.977 432.366 505.984C432.367 505.986 432.375 506.004 432.375 506.05H448.375C448.375 497.496 441.603 490.1 432.688 490.1V506.1Z" fill="white" mask="url(#path-36-inside-3)"/>
<rect x="430.125" y="474.25" width="5.125" height="25.8375" fill="white"/>
<path d="M433.328 496.775C441.585 488.316 457.198 494.455 457.992 481.538" stroke="white" stroke-width="8"/>
</g>
<path d="M346.465 58.0435L321.366 74.788V62.7993L332.544 55.2308L321.366 47.1926V35.8062L346.465 52.9522V58.0435ZM368.99 82.01H347.752V72.4852H368.99V82.01Z" fill="white"/>
<g opacity="0.8" filter="url(#filter20_d)">
<ellipse cx="713.923" cy="333.86" rx="6.92308" ry="6.85976" fill="white"/>
<ellipse cx="713.923" cy="365.14" rx="6.92308" ry="6.85976" fill="white"/>
<ellipse cx="736.077" cy="356.36" rx="6.92308" ry="6.85976" fill="white"/>
<rect x="711.431" y="336.329" width="4.43077" height="26.8902" fill="white"/>
<path d="M714.477 339.073C712.262 344.012 719.75 353.773 733.031 357.732" stroke="white" stroke-width="7"/>
</g>
<g filter="url(#filter21_f)">
<circle cx="329" cy="230" r="18" stroke="url(#paint31_linear)" stroke-width="4"/>
</g>
<g opacity="0.9" filter="url(#filter22_d)">
<rect x="734" y="157" width="45" height="13.2329" rx="6.61644" fill="white"/>
<rect x="734" y="163.931" width="5" height="37.8082" rx="2.5" fill="white"/>
<rect x="774" y="163.301" width="5" height="38.4384" rx="2.5" fill="white"/>
<rect x="734" y="203" width="6.30137" height="45" rx="3.15068" transform="rotate(-90 734 203)" fill="white"/>
<path d="M744 177.794L751.188 184.726L744 191.342" stroke="white" stroke-width="8"/>
<path d="M756.5 190.397H769" stroke="white" stroke-width="8"/>
</g>
<g opacity="0.9" filter="url(#filter23_d)">
<path d="M407 203L403 243" stroke="white" stroke-width="8"/>
<path d="M415.5 212.444L426 223.7L415.5 234.667" stroke="white" stroke-width="8"/>
<path d="M394 233.556L384 222.863L394 212.445" stroke="white" stroke-width="8"/>
</g>
<defs>
<filter id="filter0_i" x="0.90918" y="532" width="583.09" height="219.69" filterUnits="userSpaceOnUse" color-interpolation-filters="sRGB">
<feFlood flood-opacity="0" result="BackgroundImageFix"/>
<feBlend mode="normal" in="SourceGraphic" in2="BackgroundImageFix" result="shape"/>
<feColorMatrix in="SourceAlpha" type="matrix" values="0 0 0 0 0 0 0 0 0 0 0 0 0 0 0 0 0 0 127 0" result="hardAlpha"/>
<feOffset dy="4"/>
<feGaussianBlur stdDeviation="5"/>
<feComposite in2="hardAlpha" operator="arithmetic" k2="-1" k3="1"/>
<feColorMatrix type="matrix" values="0 0 0 0 0 0 0 0 0 0 0 0 0 0 0 0 0 0 0.21 0"/>
<feBlend mode="normal" in2="shape" result="effect1_innerShadow"/>
</filter>
<filter id="filter1_f" x="646.798" y="90.4448" width="49.9835" height="49.9835" filterUnits="userSpaceOnUse" color-interpolation-filters="sRGB">
<feFlood flood-opacity="0" result="BackgroundImageFix"/>
<feBlend mode="normal" in="SourceGraphic" in2="BackgroundImageFix" result="shape"/>
<feGaussianBlur stdDeviation="5" result="effect1_foregroundBlur"/>
</filter>
<filter id="filter2_f" x="592.081" y="274.097" width="37.9835" height="37.9835" filterUnits="userSpaceOnUse" color-interpolation-filters="sRGB">
<feFlood flood-opacity="0" result="BackgroundImageFix"/>
<feBlend mode="normal" in="SourceGraphic" in2="BackgroundImageFix" result="shape"/>
<feGaussianBlur stdDeviation="2" result="effect1_foregroundBlur"/>
</filter>
<filter id="filter3_f" x="387.967" y="69.3652" width="66.0988" height="64.1134" filterUnits="userSpaceOnUse" color-interpolation-filters="sRGB">
<feFlood flood-opacity="0" result="BackgroundImageFix"/>
<feBlend mode="normal" in="SourceGraphic" in2="BackgroundImageFix" result="shape"/>
<feGaussianBlur stdDeviation="2" result="effect1_foregroundBlur"/>
</filter>
<filter id="filter4_f" x="618.84" y="43.8789" width="66.0988" height="64.1134" filterUnits="userSpaceOnUse" color-interpolation-filters="sRGB">
<feFlood flood-opacity="0" result="BackgroundImageFix"/>
<feBlend mode="normal" in="SourceGraphic" in2="BackgroundImageFix" result="shape"/>
<feGaussianBlur stdDeviation="2" result="effect1_foregroundBlur"/>
</filter>
<filter id="filter5_f" x="800.804" y="39.0237" width="64.6161" height="64.8871" filterUnits="userSpaceOnUse" color-interpolation-filters="sRGB">
<feFlood flood-opacity="0" result="BackgroundImageFix"/>
<feBlend mode="normal" in="SourceGraphic" in2="BackgroundImageFix" result="shape"/>
<feGaussianBlur stdDeviation="2" result="effect1_foregroundBlur"/>
</filter>
<filter id="filter6_f" x="622.064" y="339.312" width="59.7216" height="58.972" filterUnits="userSpaceOnUse" color-interpolation-filters="sRGB">
<feFlood flood-opacity="0" result="BackgroundImageFix"/>
<feBlend mode="normal" in="SourceGraphic" in2="BackgroundImageFix" result="shape"/>
<feGaussianBlur stdDeviation="2" result="effect1_foregroundBlur"/>
</filter>
<filter id="filter7_f" x="707.119" y="248.844" width="48.0966" height="49.1957" filterUnits="userSpaceOnUse" color-interpolation-filters="sRGB">
<feFlood flood-opacity="0" result="BackgroundImageFix"/>
<feBlend mode="normal" in="SourceGraphic" in2="BackgroundImageFix" result="shape"/>
<feGaussianBlur stdDeviation="2" result="effect1_foregroundBlur"/>
</filter>
<filter id="filter8_f" x="648.909" y="287.389" width="40.496" height="41.0578" filterUnits="userSpaceOnUse" color-interpolation-filters="sRGB">
<feFlood flood-opacity="0" result="BackgroundImageFix"/>
<feBlend mode="normal" in="SourceGraphic" in2="BackgroundImageFix" result="shape"/>
<feGaussianBlur stdDeviation="5" result="effect1_foregroundBlur"/>
</filter>
<filter id="filter9_f" x="450.269" y="389.333" width="40.496" height="41.0578" filterUnits="userSpaceOnUse" color-interpolation-filters="sRGB">
<feFlood flood-opacity="0" result="BackgroundImageFix"/>
<feBlend mode="normal" in="SourceGraphic" in2="BackgroundImageFix" result="shape"/>
<feGaussianBlur stdDeviation="5" result="effect1_foregroundBlur"/>
</filter>
<filter id="filter10_f" x="478.753" y="221.426" width="40.496" height="41.0578" filterUnits="userSpaceOnUse" color-interpolation-filters="sRGB">
<feFlood flood-opacity="0" result="BackgroundImageFix"/>
<feBlend mode="normal" in="SourceGraphic" in2="BackgroundImageFix" result="shape"/>
<feGaussianBlur stdDeviation="5" result="effect1_foregroundBlur"/>
</filter>
<filter id="filter11_f" x="492.249" y="371.347" width="28.496" height="29.0578" filterUnits="userSpaceOnUse" color-interpolation-filters="sRGB">
<feFlood flood-opacity="0" result="BackgroundImageFix"/>
<feBlend mode="normal" in="SourceGraphic" in2="BackgroundImageFix" result="shape"/>
<feGaussianBlur stdDeviation="2" result="effect1_foregroundBlur"/>
</filter>
<filter id="filter12_f" x="552.966" y="227.426" width="28.496" height="29.0578" filterUnits="userSpaceOnUse" color-interpolation-filters="sRGB">
<feFlood flood-opacity="0" result="BackgroundImageFix"/>
<feBlend mode="normal" in="SourceGraphic" in2="BackgroundImageFix" result="shape"/>
<feGaussianBlur stdDeviation="2" result="effect1_foregroundBlur"/>
</filter>
<filter id="filter13_f" x="503.969" y="426.524" width="48.3598" height="48.9252" filterUnits="userSpaceOnUse" color-interpolation-filters="sRGB">
<feFlood flood-opacity="0" result="BackgroundImageFix"/>
<feBlend mode="normal" in="SourceGraphic" in2="BackgroundImageFix" result="shape"/>
<feGaussianBlur stdDeviation="2" result="effect1_foregroundBlur"/>
</filter>
<filter id="filter14_f" x="448.879" y="512.358" width="46.655" height="47.3857" filterUnits="userSpaceOnUse" color-interpolation-filters="sRGB">
<feFlood flood-opacity="0" result="BackgroundImageFix"/>
<feBlend mode="normal" in="SourceGraphic" in2="BackgroundImageFix" result="shape"/>
<feGaussianBlur stdDeviation="5" result="effect1_foregroundBlur"/>
</filter>
<filter id="filter15_f" x="618.667" y="224.107" width="48.0966" height="49.1957" filterUnits="userSpaceOnUse" color-interpolation-filters="sRGB">
<feFlood flood-opacity="0" result="BackgroundImageFix"/>
<feBlend mode="normal" in="SourceGraphic" in2="BackgroundImageFix" result="shape"/>
<feGaussianBlur stdDeviation="2" result="effect1_foregroundBlur"/>
</filter>
<filter id="filter16_f" x="560.599" y="358.801" width="39.4827" height="39.4827" filterUnits="userSpaceOnUse" color-interpolation-filters="sRGB">
<feFlood flood-opacity="0" result="BackgroundImageFix"/>
<feBlend mode="normal" in="SourceGraphic" in2="BackgroundImageFix" result="shape"/>
<feGaussianBlur stdDeviation="2" result="effect1_foregroundBlur"/>
</filter>
<filter id="filter17_f" x="613.069" y="163.158" width="39.4827" height="39.4827" filterUnits="userSpaceOnUse" color-interpolation-filters="sRGB">
<feFlood flood-opacity="0" result="BackgroundImageFix"/>
<feBlend mode="normal" in="SourceGraphic" in2="BackgroundImageFix" result="shape"/>
<feGaussianBlur stdDeviation="2" result="effect1_foregroundBlur"/>
</filter>
<filter id="filter18_f" x="409.764" y="330.792" width="61.2627" height="63.5663" filterUnits="userSpaceOnUse" color-interpolation-filters="sRGB">
<feFlood flood-opacity="0" result="BackgroundImageFix"/>
<feBlend mode="normal" in="SourceGraphic" in2="BackgroundImageFix" result="shape"/>
<feGaussianBlur stdDeviation="2" result="effect1_foregroundBlur"/>
</filter>
<filter id="filter19_d" x="421" y="461" width="49" height="61.0001" filterUnits="userSpaceOnUse" color-interpolation-filters="sRGB">
<feFlood flood-opacity="0" result="BackgroundImageFix"/>
<feColorMatrix in="SourceAlpha" type="matrix" values="0 0 0 0 0 0 0 0 0 0 0 0 0 0 0 0 0 0 127 0"/>
<feOffset dy="4"/>
<feGaussianBlur stdDeviation="2"/>
<feColorMatrix type="matrix" values="0 0 0 0 0 0 0 0 0 0 0 0 0 0 0 0 0 0 0.32 0"/>
<feBlend mode="normal" in2="BackgroundImageFix" result="effect1_dropShadow"/>
<feBlend mode="normal" in="SourceGraphic" in2="effect1_dropShadow" result="shape"/>
</filter>
<filter id="filter20_d" x="703" y="327" width="44" height="53" filterUnits="userSpaceOnUse" color-interpolation-filters="sRGB">
<feFlood flood-opacity="0" result="BackgroundImageFix"/>
<feColorMatrix in="SourceAlpha" type="matrix" values="0 0 0 0 0 0 0 0 0 0 0 0 0 0 0 0 0 0 127 0"/>
<feOffset dy="4"/>
<feGaussianBlur stdDeviation="2"/>
<feColorMatrix type="matrix" values="0 0 0 0 0 0 0 0 0 0 0 0 0 0 0 0 0 0 0.26 0"/>
<feBlend mode="normal" in2="BackgroundImageFix" result="effect1_dropShadow"/>
<feBlend mode="normal" in="SourceGraphic" in2="effect1_dropShadow" result="shape"/>
</filter>
<filter id="filter21_f" x="299" y="200" width="60" height="60" filterUnits="userSpaceOnUse" color-interpolation-filters="sRGB">
<feFlood flood-opacity="0" result="BackgroundImageFix"/>
<feBlend mode="normal" in="SourceGraphic" in2="BackgroundImageFix" result="shape"/>
<feGaussianBlur stdDeviation="5" result="effect1_foregroundBlur"/>
</filter>
<filter id="filter22_d" x="730" y="157" width="53" height="54.0001" filterUnits="userSpaceOnUse" color-interpolation-filters="sRGB">
<feFlood flood-opacity="0" result="BackgroundImageFix"/>
<feColorMatrix in="SourceAlpha" type="matrix" values="0 0 0 0 0 0 0 0 0 0 0 0 0 0 0 0 0 0 127 0"/>
<feOffset dy="4"/>
<feGaussianBlur stdDeviation="2"/>
<feColorMatrix type="matrix" values="0 0 0 0 0 0 0 0 0 0 0 0 0 0 0 0 0 0 0.36 0"/>
<feBlend mode="normal" in2="BackgroundImageFix" result="effect1_dropShadow"/>
<feBlend mode="normal" in="SourceGraphic" in2="effect1_dropShadow" result="shape"/>
</filter>
<filter id="filter23_d" x="374.49" y="202.602" width="61.0134" height="48.796" filterUnits="userSpaceOnUse" color-interpolation-filters="sRGB">
<feFlood flood-opacity="0" result="BackgroundImageFix"/>
<feColorMatrix in="SourceAlpha" type="matrix" values="0 0 0 0 0 0 0 0 0 0 0 0 0 0 0 0 0 0 127 0"/>
<feOffset dy="4"/>
<feGaussianBlur stdDeviation="2"/>
<feColorMatrix type="matrix" values="0 0 0 0 0 0 0 0 0 0 0 0 0 0 0 0 0 0 0.38 0"/>
<feBlend mode="normal" in2="BackgroundImageFix" result="effect1_dropShadow"/>
<feBlend mode="normal" in="SourceGraphic" in2="effect1_dropShadow" result="shape"/>
</filter>
<linearGradient id="paint0_linear" x1="0.981629" y1="610.922" x2="184.278" y2="610.922" gradientUnits="userSpaceOnUse">
<stop offset="0.233" stop-color="#512EBD"/>
<stop offset="0.3447" stop-color="#512EBD"/>
<stop offset="0.6241" stop-color="#B2375A"/>
<stop offset="0.8184" stop-color="#F83D13"/>
</linearGradient>
<linearGradient id="paint1_linear" x1="209.514" y1="663.31" x2="542.079" y2="663.31" gradientUnits="userSpaceOnUse">
<stop offset="0.233" stop-color="#512EBD"/>
<stop offset="0.3447" stop-color="#512EBD"/>
<stop offset="0.6241" stop-color="#B2375A"/>
<stop offset="0.8184" stop-color="#F83D13"/>
</linearGradient>
<linearGradient id="paint2_linear" x1="1.0516" y1="683.725" x2="581.628" y2="683.725" gradientUnits="userSpaceOnUse">
<stop offset="0.233" stop-color="#512EBD"/>
<stop offset="0.3447" stop-color="#512EBD"/>
<stop offset="0.6241" stop-color="#B2375A"/>
<stop offset="0.8184" stop-color="#F83D13"/>
</linearGradient>
<linearGradient id="paint3_linear" x1="149.533" y1="605.729" x2="490.331" y2="605.729" gradientUnits="userSpaceOnUse">
<stop offset="0.233" stop-color="#512EBD"/>
<stop offset="0.3447" stop-color="#512EBD"/>
<stop offset="0.6241" stop-color="#B2375A"/>
<stop offset="0.8184" stop-color="#F83D13"/>
</linearGradient>
<linearGradient id="paint4_linear" x1="0.981204" y1="584.161" x2="414.186" y2="584.161" gradientUnits="userSpaceOnUse">
<stop offset="0.233" stop-color="#512EBD"/>
<stop offset="0.3447" stop-color="#512EBD"/>
<stop offset="0.6241" stop-color="#B2375A"/>
<stop offset="0.8184" stop-color="#F83D13"/>
</linearGradient>
<linearGradient id="paint5_linear" x1="671.79" y1="100.445" x2="671.79" y2="130.428" gradientUnits="userSpaceOnUse">
<stop offset="0.128125" stop-color="#F83D13"/>
<stop offset="0.357292" stop-color="#B2375A"/>
<stop offset="0.76875" stop-color="#512EBD"/>
<stop offset="0.888542" stop-color="#312EBD"/>
</linearGradient>
<linearGradient id="paint6_linear" x1="611.073" y1="278.097" x2="611.073" y2="308.081" gradientUnits="userSpaceOnUse">
<stop offset="0.128125" stop-color="#F83D13"/>
<stop offset="0.357292" stop-color="#B2375A"/>
<stop offset="0.76875" stop-color="#512EBD"/>
<stop offset="0.888542" stop-color="#312EBD"/>
</linearGradient>
<linearGradient id="paint7_linear" x1="544.359" y1="43.4761" x2="544.359" y2="73.4596" gradientUnits="userSpaceOnUse">
<stop offset="0.128125" stop-color="#F83D13"/>
<stop offset="0.357292" stop-color="#B2375A"/>
<stop offset="0.76875" stop-color="#512EBD"/>
<stop offset="0.888542" stop-color="#312EBD"/>
</linearGradient>
<linearGradient id="paint8_linear" x1="405.31" y1="166.409" x2="405.31" y2="278.097" gradientUnits="userSpaceOnUse">
<stop offset="0.128125" stop-color="#F83D13"/>
<stop offset="0.357292" stop-color="#B2375A"/>
<stop offset="0.76875" stop-color="#512EBD"/>
<stop offset="0.888542" stop-color="#312EBD"/>
</linearGradient>
<linearGradient id="paint9_linear" x1="416.365" y1="129.056" x2="425.668" y2="73.7881" gradientUnits="userSpaceOnUse">
<stop offset="0.128125" stop-color="#F83D13"/>
<stop offset="0.357292" stop-color="#B2375A"/>
<stop offset="0.76875" stop-color="#512EBD"/>
<stop offset="0.888542" stop-color="#312EBD"/>
</linearGradient>
<linearGradient id="paint10_linear" x1="647.239" y1="103.57" x2="656.541" y2="48.3018" gradientUnits="userSpaceOnUse">
<stop offset="0.128125" stop-color="#F83D13"/>
<stop offset="0.357292" stop-color="#B2375A"/>
<stop offset="0.76875" stop-color="#512EBD"/>
<stop offset="0.888542" stop-color="#312EBD"/>
</linearGradient>
<linearGradient id="paint11_linear" x1="811.47" y1="53.6652" x2="854.753" y2="89.2694" gradientUnits="userSpaceOnUse">
<stop offset="0.128125" stop-color="#F83D13"/>
<stop offset="0.357292" stop-color="#B2375A"/>
<stop offset="0.76875" stop-color="#512EBD"/>
<stop offset="0.888542" stop-color="#312EBD"/>
</linearGradient>
<linearGradient id="paint12_linear" x1="651.925" y1="343.312" x2="651.925" y2="394.284" gradientUnits="userSpaceOnUse">
<stop offset="0.128125" stop-color="#F83D13"/>
<stop offset="0.357292" stop-color="#B2375A"/>
<stop offset="0.76875" stop-color="#512EBD"/>
<stop offset="0.888542" stop-color="#312EBD"/>
</linearGradient>
<linearGradient id="paint13_linear" x1="712.308" y1="266.885" x2="750.026" y2="279.999" gradientUnits="userSpaceOnUse">
<stop offset="0.128125" stop-color="#F83D13"/>
<stop offset="0.357292" stop-color="#B2375A"/>
<stop offset="0.76875" stop-color="#512EBD"/>
<stop offset="0.888542" stop-color="#312EBD"/>
</linearGradient>
<linearGradient id="paint14_linear" x1="659.517" y1="304.567" x2="678.797" y2="311.27" gradientUnits="userSpaceOnUse">
<stop offset="0.128125" stop-color="#F83D13"/>
<stop offset="0.357292" stop-color="#B2375A"/>
<stop offset="0.76875" stop-color="#512EBD"/>
<stop offset="0.888542" stop-color="#312EBD"/>
</linearGradient>
<linearGradient id="paint15_linear" x1="460.877" y1="406.511" x2="480.156" y2="413.214" gradientUnits="userSpaceOnUse">
<stop offset="0.128125" stop-color="#F83D13"/>
<stop offset="0.357292" stop-color="#B2375A"/>
<stop offset="0.76875" stop-color="#512EBD"/>
<stop offset="0.888542" stop-color="#312EBD"/>
</linearGradient>
<linearGradient id="paint16_linear" x1="489.361" y1="238.603" x2="508.641" y2="245.306" gradientUnits="userSpaceOnUse">
<stop offset="0.128125" stop-color="#F83D13"/>
<stop offset="0.357292" stop-color="#B2375A"/>
<stop offset="0.76875" stop-color="#512EBD"/>
<stop offset="0.888542" stop-color="#312EBD"/>
</linearGradient>
<linearGradient id="paint17_linear" x1="496.857" y1="382.524" x2="516.137" y2="389.227" gradientUnits="userSpaceOnUse">
<stop offset="0.128125" stop-color="#F83D13"/>
<stop offset="0.357292" stop-color="#B2375A"/>
<stop offset="0.76875" stop-color="#512EBD"/>
<stop offset="0.888542" stop-color="#312EBD"/>
</linearGradient>
<linearGradient id="paint18_linear" x1="557.574" y1="238.603" x2="576.854" y2="245.306" gradientUnits="userSpaceOnUse">
<stop offset="0.128125" stop-color="#F83D13"/>
<stop offset="0.357292" stop-color="#B2375A"/>
<stop offset="0.76875" stop-color="#512EBD"/>
<stop offset="0.888542" stop-color="#312EBD"/>
</linearGradient>
<linearGradient id="paint19_linear" x1="345.344" y1="0" x2="345.344" y2="111.689" gradientUnits="userSpaceOnUse">
<stop offset="0.128125" stop-color="#F83D13"/>
<stop offset="0.357292" stop-color="#B2375A"/>
<stop offset="0.76875" stop-color="#512EBD"/>
<stop offset="0.888542" stop-color="#312EBD"/>
</linearGradient>
<linearGradient id="paint20_linear" x1="511.428" y1="461.898" x2="544.869" y2="440.076" gradientUnits="userSpaceOnUse">
<stop offset="0.128125" stop-color="#F83D13"/>
<stop offset="0.357292" stop-color="#B2375A"/>
<stop offset="0.76875" stop-color="#512EBD"/>
<stop offset="0.888542" stop-color="#312EBD"/>
</linearGradient>
<linearGradient id="paint21_linear" x1="459.67" y1="531.692" x2="484.743" y2="540.41" gradientUnits="userSpaceOnUse">
<stop offset="0.128125" stop-color="#F83D13"/>
<stop offset="0.357292" stop-color="#B2375A"/>
<stop offset="0.76875" stop-color="#512EBD"/>
<stop offset="0.888542" stop-color="#312EBD"/>
</linearGradient>
<linearGradient id="paint22_linear" x1="623.856" y1="242.148" x2="661.574" y2="255.262" gradientUnits="userSpaceOnUse">
<stop offset="0.128125" stop-color="#F83D13"/>
<stop offset="0.357292" stop-color="#B2375A"/>
<stop offset="0.76875" stop-color="#512EBD"/>
<stop offset="0.888542" stop-color="#312EBD"/>
</linearGradient>
<linearGradient id="paint23_linear" x1="563.425" y1="284.168" x2="493.232" y2="315.971" gradientUnits="userSpaceOnUse">
<stop offset="0.128125" stop-color="#F83D13"/>
<stop offset="0.357292" stop-color="#B2375A"/>
<stop offset="0.76875" stop-color="#512EBD"/>
<stop offset="0.888542" stop-color="#312EBD"/>
</linearGradient>
<linearGradient id="paint24_linear" x1="580.34" y1="362.801" x2="580.34" y2="394.284" gradientUnits="userSpaceOnUse">
<stop offset="0.128125" stop-color="#F83D13"/>
<stop offset="0.357292" stop-color="#B2375A"/>
<stop offset="0.76875" stop-color="#512EBD"/>
<stop offset="0.888542" stop-color="#312EBD"/>
</linearGradient>
<linearGradient id="paint25_linear" x1="632.811" y1="167.158" x2="632.811" y2="198.641" gradientUnits="userSpaceOnUse">
<stop offset="0.128125" stop-color="#F83D13"/>
<stop offset="0.357292" stop-color="#B2375A"/>
<stop offset="0.76875" stop-color="#512EBD"/>
<stop offset="0.888542" stop-color="#312EBD"/>
</linearGradient>
<linearGradient id="paint26_linear" x1="558.589" y1="118.564" x2="558.589" y2="202.518" gradientUnits="userSpaceOnUse">
<stop offset="0.128125" stop-color="#F83D13"/>
<stop offset="0.357292" stop-color="#B2375A"/>
<stop offset="0.76875" stop-color="#512EBD"/>
<stop offset="0.888542" stop-color="#312EBD"/>
</linearGradient>
<linearGradient id="paint27_linear" x1="437.392" y1="334.944" x2="443.399" y2="390.207" gradientUnits="userSpaceOnUse">
<stop offset="0.128125" stop-color="#F83D13"/>
<stop offset="0.357292" stop-color="#B2375A"/>
<stop offset="0.76875" stop-color="#512EBD"/>
<stop offset="0.888542" stop-color="#312EBD"/>
</linearGradient>
<linearGradient id="paint28_linear" x1="756.118" y1="124.432" x2="756.118" y2="235.371" gradientUnits="userSpaceOnUse">
<stop offset="0.128125" stop-color="#F83D13"/>
<stop offset="0.357292" stop-color="#B2375A"/>
<stop offset="0.76875" stop-color="#512EBD"/>
<stop offset="0.888542" stop-color="#312EBD"/>
</linearGradient>
<linearGradient id="paint29_linear" x1="721.355" y1="292.807" x2="721.355" y2="404.496" gradientUnits="userSpaceOnUse">
<stop offset="0.128125" stop-color="#F83D13"/>
<stop offset="0.357292" stop-color="#B2375A"/>
<stop offset="0.76875" stop-color="#512EBD"/>
<stop offset="0.888542" stop-color="#312EBD"/>
</linearGradient>
<linearGradient id="paint30_linear" x1="445.066" y1="430.865" x2="445.066" y2="542.554" gradientUnits="userSpaceOnUse">
<stop offset="0.128125" stop-color="#F83D13"/>
<stop offset="0.357292" stop-color="#B2375A"/>
<stop offset="0.76875" stop-color="#512EBD"/>
<stop offset="0.888542" stop-color="#312EBD"/>
</linearGradient>
<linearGradient id="paint31_linear" x1="329" y1="210" x2="329" y2="250" gradientUnits="userSpaceOnUse">
<stop offset="0.128125" stop-color="#F83D13"/>
<stop offset="0.357292" stop-color="#B2375A"/>
<stop offset="0.76875" stop-color="#512EBD"/>
<stop offset="0.888542" stop-color="#312EBD"/>
</linearGradient>
</defs>
</svg>
